<svg width="24" height="24" viewBox="0 0 24 24" fill="none" xmlns="http://www.w3.org/2000/svg">
<path fill-rule="evenodd" clip-rule="evenodd" d="M6 3.75C4.75736 3.75 3.75 4.75736 3.75 6V7.5C3.75 7.91421 3.41421 8.25 3 8.25C2.58579 8.25 2.25 7.91421 2.25 7.5V6C2.25 3.92893 3.92893 2.25 6 2.25H7.5C7.91421 2.25 8.25 2.58579 8.25 3C8.25 3.41421 7.91421 3.75 7.5 3.75H6ZM15.75 3C15.75 2.58579 16.0858 2.25 16.5 2.25H18C20.0711 2.25 21.75 3.92893 21.75 6V7.5C21.75 7.91421 21.4142 8.25 21 8.25C20.5858 8.25 20.25 7.91421 20.25 7.5V6C20.25 4.75736 19.2426 3.75 18 3.75H16.5C16.0858 3.75 15.75 3.41421 15.75 3ZM3 15.75C3.41421 15.75 3.75 16.0858 3.75 16.5V18C3.75 19.2426 4.75736 20.25 6 20.25H7.5C7.91421 20.25 8.25 20.5858 8.25 21C8.25 21.4142 7.91421 21.75 7.5 21.75H6C3.92893 21.75 2.25 20.0711 2.25 18V16.5C2.25 16.0858 2.58579 15.75 3 15.75ZM21 15.75C21.4142 15.75 21.75 16.0858 21.75 16.5V18C21.75 20.0711 20.0711 21.75 18 21.75H16.5C16.0858 21.75 15.75 21.4142 15.75 21C15.75 20.5858 16.0858 20.25 16.5 20.25H18C19.2426 20.25 20.25 19.2426 20.25 18V16.5C20.25 16.0858 20.5858 15.75 21 15.75Z" fill="black"/>
<path d="M4.5 6.5C4.5 5.39543 5.39543 4.5 6.5 4.5H17.5C18.6046 4.5 19.5 5.39543 19.5 6.5V17.5C19.5 18.6046 18.6046 19.5 17.5 19.5H6.5C5.39543 19.5 4.5 18.6046 4.5 17.5V6.5Z" fill="#BFBFBF"/>
<path d="M17.1152 13.6147C17.1152 15.5477 15.5482 17.1147 13.6152 17.1147C11.6822 17.1147 10.1152 15.5477 10.1152 13.6147C10.1152 11.6817 11.6822 10.1147 13.6152 10.1147C15.5482 10.1147 17.1152 11.6817 17.1152 13.6147Z" fill="black"/>
<path fill-rule="evenodd" clip-rule="evenodd" d="M13.8572 9.62196C13.777 9.61717 13.6963 9.61475 13.6149 9.61475C11.4058 9.61475 9.6149 11.4056 9.6149 13.6147C9.6149 13.747 9.62132 13.8778 9.63386 14.0067C8.11979 13.6213 7 12.2488 7 10.6147C7 8.68175 8.567 7.11475 10.5 7.11475C12.0881 7.11475 13.4292 8.17251 13.8572 9.62196Z" fill="black"/>
</svg>
