<svg width="22" height="22" viewBox="0 0 22 22" fill="none" xmlns="http://www.w3.org/2000/svg">
<path fill-rule="evenodd" clip-rule="evenodd" d="M0.25 6C0.25 2.82436 2.82436 0.25 6 0.25H16C19.1756 0.25 21.75 2.82436 21.75 6V16C21.75 19.1756 19.1756 21.75 16 21.75H6C2.82436 21.75 0.25 19.1756 0.25 16V6Z" fill="#BFBFBF"/>
<path d="M13.9004 9.8501C13.9004 9.29781 14.3481 8.8501 14.9004 8.8501H16.6904C17.2427 8.8501 17.6904 9.29781 17.6904 9.8501V16.4001H13.9004V9.8501Z" fill="black"/>
<path d="M4.32031 12.1499C4.32031 11.5976 4.76803 11.1499 5.32031 11.1499H7.11031C7.6626 11.1499 8.11031 11.5976 8.11031 12.1499V16.4099H4.32031V12.1499Z" fill="black"/>
<path d="M11.7616 5.6001H10.2415C9.61155 5.6001 9.10156 6.11011 9.10156 6.74011V16.4001H12.8916V6.74011C12.8916 6.11011 12.3916 5.6001 11.7616 5.6001Z" fill="black"/>
</svg>
