<svg width="28" height="28" viewBox="0 0 28 28" fill="none" xmlns="http://www.w3.org/2000/svg">
<path fill-rule="evenodd" clip-rule="evenodd" d="M14 2.625C5.60117 2.625 2.625 5.60233 2.625 14C2.625 22.3977 5.60117 25.375 14 25.375C22.3988 25.375 25.375 22.3977 25.375 14C25.375 5.60233 22.3988 2.625 14 2.625Z" fill="#857D7D"/>
<path d="M16.568 16.0484L18.2212 10.7657C18.3087 10.4869 18.234 10.1812 18.0263 9.97355C17.8198 9.76588 17.5142 9.68888 17.2342 9.77872L11.9492 11.4319C11.703 11.5089 11.5093 11.7014 11.4323 11.9487L9.778 17.2337C9.6905 17.5137 9.76633 17.8194 9.97283 18.0259C10.1233 18.1764 10.3252 18.2569 10.5305 18.2569C10.6098 18.2569 10.688 18.2452 10.7662 18.2207L16.0512 16.5664C16.2973 16.4894 16.491 16.2957 16.568 16.0484Z" fill="#504D4D"/>
</svg>
