<svg width="24" height="24" viewBox="0 0 24 24" fill="none" xmlns="http://www.w3.org/2000/svg">
<path fill-rule="evenodd" clip-rule="evenodd" d="M5.87623 8.57196C6.05347 8.25751 6.38641 8.06299 6.74737 8.06299H15.0031C15.3641 8.06299 15.697 8.25751 15.8742 8.57196L18.5962 13.401C17.7568 12.7187 16.6863 12.3097 15.5202 12.3097C12.8251 12.3097 10.6402 14.4946 10.6402 17.1897C10.6402 19.2882 11.9648 21.0772 13.8234 21.7666C13.9465 22.0987 14.1048 22.4137 14.2936 22.7071C14.0864 22.727 13.8751 22.7372 13.6603 22.7372H8.0902C3.48093 22.7372 0.541585 18.0361 2.72684 14.1593L5.87623 8.57196Z" fill="black"/>
<path fill-rule="evenodd" clip-rule="evenodd" d="M15.0771 20.0382C15.0771 18.1264 16.6269 16.5767 18.5387 16.5767C20.4504 16.5767 22.0002 18.1264 22.0002 20.0382C22.0002 21.95 20.4504 23.4997 18.5387 23.4997C16.6269 23.4997 15.0771 21.95 15.0771 20.0382Z" fill="black"/>
<path fill-rule="evenodd" clip-rule="evenodd" d="M15.4615 13.5C13.5498 13.5 12 15.0498 12 16.9615C12 18.5662 13.0918 19.9158 14.5731 20.308C14.5671 20.2189 14.5641 20.129 14.5641 20.0385C14.5641 17.8435 16.3435 16.0641 18.5385 16.0641C18.629 16.0641 18.7189 16.0671 18.808 16.0731C18.4158 14.5918 17.0662 13.5 15.4615 13.5Z" fill="black"/>
<path fill-rule="evenodd" clip-rule="evenodd" d="M12.9204 1.45702C14.1438 0.845315 15.5355 1.90831 15.2673 3.24955L14.7864 5.65384C14.6228 6.47184 13.9046 7.06064 13.0704 7.06064H8.67097C7.86795 7.06064 7.16798 6.51412 6.97322 5.73508L6.6923 4.61139C6.31505 3.10237 7.68192 1.73549 9.19095 2.11275C10.2312 2.3728 11.3301 2.25217 12.2891 1.77265L12.9204 1.45702Z" fill="black"/>
</svg>
