<svg width="29" height="28" viewBox="0 0 29 28" fill="none" xmlns="http://www.w3.org/2000/svg">
<path fill-rule="evenodd" clip-rule="evenodd" d="M23.8827 13.9989C23.8827 14.9042 24.4229 15.8166 25.628 15.8166C25.95 15.8166 26.2114 16.0767 26.2114 16.3999C26.2114 22.5774 25.6852 24.5304 14.6672 24.5304C3.64921 24.5304 3.12305 22.5774 3.12305 16.3999C3.12305 16.0767 3.38321 15.8166 3.70638 15.8166C4.25821 15.8166 4.69688 15.6322 5.01071 15.2682C5.29071 14.9439 5.45055 14.4807 5.45055 13.9989C5.45055 13.0959 4.91155 12.1824 3.70638 12.1824C3.38321 12.1824 3.12305 11.9222 3.12305 11.5991C3.12305 5.42389 3.64921 3.46973 14.6672 3.46973C25.6852 3.46973 26.2114 5.42389 26.2114 11.5991C26.2114 11.9222 25.95 12.1824 25.628 12.1824C24.4229 12.1824 23.8827 13.0959 23.8827 13.9989Z" fill="#857D7D"/>
<path d="M13.4983 10.9877C13.6983 10.5669 14.0171 10.0334 14.6664 10.0334C15.3156 10.0334 15.6344 10.5669 15.8345 10.9877C15.8877 11.0998 15.9375 11.2151 15.9846 11.3243L15.987 11.3298L15.987 11.3299C16.0339 11.4387 16.0782 11.5413 16.1239 11.6381C16.2193 11.8401 16.307 11.9845 16.4003 12.0733C16.465 12.1343 16.5916 12.1846 16.8164 12.2142C16.9687 12.2344 17.1284 12.2416 17.3028 12.2495C17.3847 12.2532 17.4697 12.2571 17.5589 12.2625C17.8182 12.2782 18.1095 12.3075 18.3566 12.408C18.62 12.5152 18.8484 12.7109 18.9349 13.0468C19.0166 13.366 18.9411 13.64 18.7911 13.8664C18.6504 14.0789 18.4429 14.2521 18.2557 14.397C18.1995 14.4406 18.1452 14.4816 18.0928 14.5211C17.9577 14.6231 17.8354 14.7153 17.7262 14.8168C17.5781 14.9544 17.4977 15.0716 17.4706 15.184C17.4395 15.3143 17.4512 15.4769 17.4963 15.6841C17.5184 15.7856 17.5468 15.8906 17.5779 16.002L17.593 16.0561L17.593 16.0563C17.6191 16.1494 17.6465 16.2473 17.6703 16.3435C17.7264 16.5697 17.7745 16.8283 17.7388 17.0787C17.7006 17.3467 17.5685 17.5914 17.3011 17.7765C16.7434 18.1608 16.1755 17.8835 15.77 17.6487C15.6857 17.5999 15.6079 17.5526 15.5332 17.5072L15.5331 17.5072C15.4049 17.4294 15.2858 17.357 15.1584 17.2917C14.9639 17.192 14.8048 17.1398 14.6664 17.1398C14.528 17.1398 14.3688 17.192 14.1744 17.2917C14.047 17.357 13.9279 17.4293 13.7997 17.5072L13.7996 17.5072L13.7991 17.5075C13.7245 17.5528 13.6468 17.6 13.5627 17.6487C13.1572 17.8835 12.5899 18.1611 12.0321 17.7768C11.7651 17.5916 11.6326 17.3465 11.5945 17.0786C11.5589 16.8283 11.6069 16.5698 11.6629 16.3436C11.6867 16.2474 11.714 16.1496 11.74 16.0565L11.7552 16.0021C11.7862 15.8907 11.8145 15.7857 11.8366 15.6842C11.8816 15.477 11.8932 15.3143 11.8622 15.184C11.8351 15.0716 11.7546 14.9544 11.6066 14.8168C11.4973 14.7153 11.3751 14.6231 11.2399 14.5211L11.2395 14.5208C11.1873 14.4814 11.133 14.4404 11.077 14.397C10.8898 14.2521 10.6824 14.0789 10.5416 13.8664C10.3917 13.64 10.316 13.3665 10.3977 13.0473C10.4842 12.7114 10.7127 12.5152 10.9762 12.408C11.2232 12.3075 11.5146 12.2782 11.7739 12.2625C11.863 12.2571 11.9481 12.2532 12.0299 12.2495C12.2044 12.2416 12.364 12.2344 12.5164 12.2142C12.7412 12.1846 12.8677 12.1343 12.9325 12.0733C13.0258 11.9845 13.1134 11.8401 13.2089 11.6381C13.2546 11.5412 13.2988 11.4387 13.3457 11.3299L13.3481 11.3243C13.3952 11.2151 13.445 11.0998 13.4983 10.9877Z" fill="#504D4D"/>
</svg>
