<svg width="24" height="24" viewBox="0 0 24 24" fill="none" xmlns="http://www.w3.org/2000/svg">
<path d="M11.5837 20.1251C6.87533 20.1251 3.04199 16.2917 3.04199 11.5834C3.04199 6.87508 6.87533 3.04175 11.5837 3.04175C16.292 3.04175 20.1253 6.87508 20.1253 11.5834C20.1253 16.2917 16.292 20.1251 11.5837 20.1251ZM11.5837 4.29175C7.55866 4.29175 4.29199 7.56675 4.29199 11.5834C4.29199 15.6001 7.55866 18.8751 11.5837 18.8751C15.6087 18.8751 18.8753 15.6001 18.8753 11.5834C18.8753 7.56675 15.6087 4.29175 11.5837 4.29175Z" fill="white"/>
<path d="M20.3335 20.9583C20.1752 20.9583 20.0169 20.9 19.8919 20.775L18.2252 19.1083C17.9835 18.8666 17.9835 18.4666 18.2252 18.225C18.4669 17.9833 18.8669 17.9833 19.1085 18.225L20.7752 19.8916C21.0169 20.1333 21.0169 20.5333 20.7752 20.775C20.6502 20.9 20.4919 20.9583 20.3335 20.9583Z" fill="white"/>
</svg>
