<svg width="25" height="26" viewBox="0 0 25 26" fill="none" xmlns="http://www.w3.org/2000/svg">
<path fill-rule="evenodd" clip-rule="evenodd" d="M10.3043 4.01978C10.8698 4.01978 11.3283 4.48017 11.3283 5.0481V9.1614C11.3283 9.72933 10.8698 10.1897 10.3043 10.1897C9.73876 10.1897 9.2803 9.72933 9.2803 9.1614V8.13308H3.1363C2.57077 8.13308 2.1123 7.67268 2.1123 7.10475C2.1123 6.53682 2.57077 6.07643 3.1363 6.07643H9.2803V5.0481C9.2803 4.48017 9.73876 4.01978 10.3043 4.01978ZM13.3763 7.10475C13.3763 6.53682 13.8348 6.07643 14.4003 6.07643H21.5683C22.1338 6.07643 22.5923 6.53682 22.5923 7.10475C22.5923 7.67268 22.1338 8.13308 21.5683 8.13308H14.4003C13.8348 8.13308 13.3763 7.67268 13.3763 7.10475ZM16.4483 10.1897C17.0138 10.1897 17.4723 10.6501 17.4723 11.2181V15.3314C17.4723 15.8993 17.0138 16.3597 16.4483 16.3597C15.8828 16.3597 15.4243 15.8993 15.4243 15.3314V14.303H3.1363C2.57077 14.303 2.1123 13.8426 2.1123 13.2747C2.1123 12.7068 2.57077 12.2464 3.1363 12.2464H15.4243V11.2181C15.4243 10.6501 15.8828 10.1897 16.4483 10.1897ZM19.5203 13.2747C19.5203 12.7068 19.9788 12.2464 20.5443 12.2464H21.5683C22.1338 12.2464 22.5923 12.7068 22.5923 13.2747C22.5923 13.8426 22.1338 14.303 21.5683 14.303H20.5443C19.9788 14.303 19.5203 13.8426 19.5203 13.2747ZM6.2083 16.3597C6.77384 16.3597 7.23231 16.8201 7.2323 17.388V21.5013C7.2323 22.0692 6.77384 22.5296 6.2083 22.5296C5.64276 22.5296 5.1843 22.0692 5.1843 21.5013V20.473H3.1363C2.57077 20.473 2.1123 20.0126 2.1123 19.4447C2.1123 18.8767 2.57077 18.4163 3.1363 18.4163H5.1843V17.388C5.1843 16.8201 5.64276 16.3597 6.2083 16.3597ZM9.2803 19.4447C9.2803 18.8767 9.73876 18.4163 10.3043 18.4163H21.5683C22.1338 18.4163 22.5923 18.8767 22.5923 19.4447C22.5923 20.0126 22.1338 20.473 21.5683 20.473H10.3043C9.73876 20.473 9.2803 20.0126 9.2803 19.4447Z" fill="white"/>
</svg>
