<svg width="24" height="24" viewBox="0 0 24 24" fill="none" xmlns="http://www.w3.org/2000/svg">
<path fill-rule="evenodd" clip-rule="evenodd" d="M1.25 12C1.25 6.06294 6.06294 1.25 12 1.25C17.9371 1.25 22.75 6.06294 22.75 12C22.75 17.9371 17.9371 22.75 12 22.75C6.06294 22.75 1.25 17.9371 1.25 12Z" fill="#BFBFBF"/>
<path fill-rule="evenodd" clip-rule="evenodd" d="M10.96 9.24023C10.6129 9.24023 10.26 9.55462 10.26 10.0202C10.26 10.3728 10.3357 10.5 10.3736 10.5483C10.4186 10.6056 10.5086 10.677 10.7494 10.7629L13.7615 11.8136C14.1139 11.9391 14.5166 12.1359 14.8174 12.5211C15.1248 12.9148 15.25 13.4059 15.25 13.9702C15.25 15.1979 14.2998 16.2502 13.05 16.2502H11.17C9.80474 16.2502 8.75 15.1027 8.75 13.7502C8.75 13.336 9.08579 13.0002 9.5 13.0002C9.91421 13.0002 10.25 13.336 10.25 13.7502C10.25 14.3378 10.6953 14.7502 11.17 14.7502H13.05C13.4002 14.7502 13.75 14.4425 13.75 13.9702C13.75 13.6246 13.6752 13.4956 13.6351 13.4443C13.5886 13.3847 13.4967 13.3118 13.2606 13.2276L10.2485 12.1768C9.90083 12.0531 9.49626 11.8597 9.1939 11.4747C8.88434 11.0805 8.76001 10.5877 8.76001 10.0202C8.76001 8.80585 9.70704 7.74023 10.96 7.74023H12.84C14.2053 7.74023 15.26 8.88778 15.26 10.2402C15.26 10.6544 14.9242 10.9902 14.51 10.9902C14.0958 10.9902 13.76 10.6544 13.76 10.2402C13.76 9.65269 13.3147 9.24023 12.84 9.24023H10.96Z" fill="black"/>
<path fill-rule="evenodd" clip-rule="evenodd" d="M12 6.75C12.4142 6.75 12.75 7.08579 12.75 7.5V16.5C12.75 16.9142 12.4142 17.25 12 17.25C11.5858 17.25 11.25 16.9142 11.25 16.5V7.5C11.25 7.08579 11.5858 6.75 12 6.75Z" fill="black"/>
</svg>
