<svg width="29" height="28" viewBox="0 0 29 28" fill="none" xmlns="http://www.w3.org/2000/svg">
<path fill-rule="evenodd" clip-rule="evenodd" d="M14.3362 9.58827C13.859 8.68644 11.3355 4.18311 8.54603 4.18311C5.75653 4.18311 3.23186 8.68644 2.7547 9.58827C2.4537 10.1576 2.6707 10.8634 3.24003 11.1656C3.80703 11.4631 4.5152 11.2496 4.81736 10.6803C5.5057 9.38294 6.5137 8.00044 7.37936 7.20011V20.0719C7.37936 20.7171 7.90086 21.2386 8.54603 21.2386C9.1912 21.2386 9.7127 20.7171 9.7127 20.0719V7.20011C10.5784 8.00161 11.5864 9.38294 12.2735 10.6803C12.4835 11.0746 12.8884 11.3009 13.306 11.3009C13.4904 11.3009 13.6782 11.2566 13.8509 11.1656C14.4202 10.8634 14.6372 10.1576 14.3362 9.58827Z" fill="#857D7D"/>
<path fill-rule="evenodd" clip-rule="evenodd" d="M25.4253 16.838C24.8607 16.5358 24.1502 16.7528 23.848 17.321C23.162 18.616 22.1587 19.995 21.2977 20.7965V7.92814C21.2977 7.28414 20.7762 6.76147 20.131 6.76147C19.4858 6.76147 18.9643 7.28414 18.9643 7.92814V20.8011C18.0987 20.0008 17.0907 18.6195 16.4023 17.321C16.1002 16.7528 15.3885 16.5346 14.825 16.838C14.2557 17.139 14.0387 17.8436 14.3397 18.4141C14.8168 19.316 17.3403 23.817 20.131 23.817C22.91 23.817 25.4335 19.316 25.9107 18.4141C26.2117 17.8436 25.9947 17.139 25.4253 16.838Z" fill="#857D7D"/>
</svg>
