<svg width="12" height="11" viewBox="0 0 12 11" fill="none" xmlns="http://www.w3.org/2000/svg">
<path d="M12 0.647059V8.19608C12 8.36769 11.9256 8.53227 11.7933 8.65362C11.6609 8.77497 11.4813 8.84314 11.2941 8.84314C11.1069 8.84314 10.9274 8.77497 10.795 8.65362C10.6626 8.53227 10.5882 8.36769 10.5882 8.19608V1.29412H3.05882C2.87161 1.29412 2.69207 1.22595 2.55969 1.1046C2.42731 0.983252 2.35294 0.81867 2.35294 0.647059C2.35294 0.475448 2.42731 0.310866 2.55969 0.189519C2.69207 0.0681721 2.87161 0 3.05882 0H11.2941C11.4813 0 11.6609 0.0681721 11.7933 0.189519C11.9256 0.310866 12 0.475448 12 0.647059ZM9.64706 2.80392V10.3529C9.64706 10.5246 9.57269 10.6891 9.44031 10.8105C9.30793 10.9318 9.12839 11 8.94118 11H0.705882C0.518671 11 0.339127 10.9318 0.206748 10.8105C0.0743695 10.6891 0 10.5246 0 10.3529V2.80392C0 2.63231 0.0743695 2.46773 0.206748 2.34638C0.339127 2.22503 0.518671 2.15686 0.705882 2.15686H8.94118C9.12839 2.15686 9.30793 2.22503 9.44031 2.34638C9.57269 2.46773 9.64706 2.63231 9.64706 2.80392ZM8.23529 3.45098H1.41176V9.70588H8.23529V3.45098Z" fill="#F8F8F8"/>
</svg>
