<svg width="28" height="28" viewBox="0 0 28 28" fill="none" xmlns="http://www.w3.org/2000/svg">
<path fill-rule="evenodd" clip-rule="evenodd" d="M20.1492 17.7008C18.0177 17.7008 16.2841 15.9671 16.2841 13.8368C16.2841 11.7053 18.0177 9.97042 20.1492 9.97042H25.0609C24.0366 5.24076 20.7781 3.45459 14.0009 3.45459C5.55891 3.45459 2.56641 6.21492 2.56641 14.0001C2.56641 21.7864 5.55891 24.5456 14.0009 24.5456C20.9332 24.5456 24.1859 22.6789 25.1286 17.7008H20.1492Z" fill="#857D7D"/>
<path fill-rule="evenodd" clip-rule="evenodd" d="M13.5941 10.0813H8.85742C8.37442 10.0813 7.98242 9.6893 7.98242 9.2063C7.98242 8.7233 8.37442 8.3313 8.85742 8.3313H13.5941C14.0771 8.3313 14.4691 8.7233 14.4691 9.2063C14.4691 9.6893 14.0771 10.0813 13.5941 10.0813Z" fill="#504D4D"/>
<path fill-rule="evenodd" clip-rule="evenodd" d="M20.1493 15.9508C18.9838 15.9508 18.0342 15.0023 18.0342 13.8368C18.0342 12.6701 18.9838 11.7205 20.1493 11.7205H25.3247C25.3935 12.431 25.4343 13.1811 25.4343 14.0001C25.4343 14.6943 25.4017 15.3348 25.3527 15.9508H20.1493ZM21.1878 13.7667C21.1878 14.2497 20.7958 14.6417 20.3128 14.6417C19.8298 14.6417 19.4378 14.2497 19.4378 13.7667C19.4378 13.2837 19.8298 12.8917 20.3128 12.8917C20.7958 12.8917 21.1878 13.2837 21.1878 13.7667Z" fill="#504D4D"/>
</svg>
